name sv07_filtered_grf.mot
datacolumns 37
datarows 15
range 0.959000 0.966000
endheader
time	1_ground_force_vx	1_ground_force_vy	1_ground_force_vz	1_ground_force_px	1_ground_force_py	1_ground_force_pz	1_ground_torque_x	1_ground_torque_y	1_ground_torque_z	2_ground_force_vx	2_ground_force_vy	2_ground_force_vz	2_ground_force_px	2_ground_force_py	2_ground_force_pz	2_ground_torque_x	2_ground_torque_y	2_ground_torque_z	3_ground_force_vx	3_ground_force_vy	3_ground_force_vz	3_ground_force_px	3_ground_force_py	3_ground_force_pz	3_ground_torque_x	3_ground_torque_y	3_ground_torque_z	4_ground_force_vx	4_ground_force_vy	4_ground_force_vz	4_ground_force_px	4_ground_force_py	4_ground_force_pz	4_ground_torque_x	4_ground_torque_y	4_ground_torque_z
            0.959000	         -164.262613	         1497.960931	          378.622038	            0.181964	            0.000000	            0.247961	           -2.522158	           23.000325	            5.813523	            0.013043	            0.000967	           -0.015725	           -0.153622	            0.000000	            0.213522	            0.000662	            0.000919	            0.000219	           16.749758	            0.169766	           -1.691727	            0.381706	            1.022337	            1.096388	           -0.092117	           -0.000934	            0.009304	          -12.784930	            1.207864	           -0.029805	           -0.492018	            1.020047	            1.099022	            0.016316	           -0.001541	            0.000038
            0.959500	         -163.532719	         1491.340407	          377.233270	            0.181946	            0.000000	            0.247882	           -2.519360	           22.975359	            5.811597	            0.015030	            0.004000	           -0.016240	           -0.153622	            0.000000	            0.213522	            0.000459	            0.000861	            0.000224	           16.694945	            0.157417	           -1.703502	            0.381716	            1.022349	            1.096384	           -0.092032	           -0.000868	            0.009391	          -12.766203	            1.173231	           -0.062273	           -0.492035	            1.020054	            1.099021	            0.015958	           -0.001467	            0.000078
            0.960000	         -162.823681	         1484.697919	          375.837844	            0.181931	            0.000000	            0.247807	           -2.516620	           22.947650	            5.808990	            0.016695	            0.006802	           -0.016509	           -0.153622	            0.000000	            0.213522	            0.000265	            0.000794	            0.000225	           16.641244	            0.146291	           -1.715846	            0.381726	            1.022361	            1.096380	           -0.091938	           -0.000808	            0.009480	          -12.745283	            1.137567	           -0.095573	           -0.492053	            1.020061	            1.099020	            0.015574	           -0.001390	            0.000117
            0.960500	         -162.138942	         1478.040691	          374.437937	            0.181917	            0.000000	            0.247734	           -2.513951	           22.916902	            5.805630	            0.018039	            0.009338	           -0.016547	           -0.153622	            0.000000	            0.213522	            0.000082	            0.000719	            0.000222	           16.588733	            0.136481	           -1.728722	            0.381734	            1.022372	            1.096375	           -0.091833	           -0.000756	            0.009570	          -12.722239	            1.100841	           -0.129395	           -0.492070	            1.020067	            1.099019	            0.015163	           -0.001312	            0.000154
            0.961000	         -161.481701	         1471.376161	          373.035713	            0.181905	            0.000000	            0.247663	           -2.511365	           22.882861	            5.801456	            0.019062	            0.011576	           -0.016373	           -0.153622	            0.000000	            0.213522	           -0.000091	            0.000637	            0.000215	           16.537484	            0.128060	           -1.742114	            0.381742	            1.022384	            1.096371	           -0.091716	           -0.000710	            0.009662	          -12.697167	            1.063039	           -0.163722	           -0.492087	            1.020073	            1.099017	            0.014726	           -0.001233	            0.000190
            0.961500	         -160.854917	         1464.711974	          371.633294	            0.181895	            0.000000	            0.247596	           -2.508877	           22.845321	            5.796417	            0.019766	            0.013488	           -0.016006	           -0.153622	            0.000000	            0.213522	           -0.000253	            0.000549	            0.000203	           16.487570	            0.121112	           -1.755987	            0.381750	            1.022396	            1.096366	           -0.091587	           -0.000673	            0.009754	          -12.670189	            1.024161	           -0.198380	           -0.492104	            1.020079	            1.099015	            0.014262	           -0.001153	            0.000223
            0.962000	         -160.261303	         1458.055972	          370.232735	            0.181887	            0.000000	            0.247531	           -2.506500	           22.804120	            5.790472	            0.020160	            0.015052	           -0.015467	           -0.153622	            0.000000	            0.213522	           -0.000403	            0.000457	            0.000188	           16.439063	            0.115715	           -1.770297	            0.381758	            1.022407	            1.096362	           -0.091445	           -0.000644	            0.009848	          -12.641451	            0.984222	           -0.233192	           -0.492121	            1.020084	            1.099013	            0.013771	           -0.001072	            0.000254
            0.962500	         -159.703331	         1451.416178	          368.836003	            0.181882	            0.000000	            0.247469	           -2.504251	           22.759142	            5.783587	            0.020252	            0.016250	           -0.014775	           -0.153622	            0.000000	            0.213522	           -0.000541	            0.000361	            0.000168	           16.392030	            0.111944	           -1.784996	            0.381766	            1.022419	            1.096358	           -0.091290	           -0.000623	            0.009941	          -12.611125	            0.943254	           -0.267974	           -0.492138	            1.020090	            1.099012	            0.013253	           -0.000991	            0.000282
            0.963000	         -159.183230	         1444.800776	          367.444958	            0.181879	            0.000000	            0.247410	           -2.502145	           22.710311	            5.775737	            0.020053	            0.017066	           -0.013951	           -0.153622	            0.000000	            0.213522	           -0.000668	            0.000264	            0.000145	           16.346541	            0.109878	           -1.800038	            0.381772	            1.022430	            1.096353	           -0.091123	           -0.000613	            0.010034	          -12.579404	            0.901301	           -0.302305	           -0.492154	            1.020094	            1.099010	            0.012709	           -0.000911	            0.000305
            0.963500	         -158.702994	         1438.218089	          366.061343	            0.181878	            0.000000	            0.247354	           -2.500196	           22.657587	            5.766905	            0.019577	            0.017490	           -0.013018	           -0.153622	            0.000000	            0.213522	           -0.000784	            0.000166	            0.000118	           16.302667	            0.109573	           -1.815355	            0.381778	            1.022442	            1.096349	           -0.090944	           -0.000611	            0.010127	          -12.546492	            0.858433	           -0.336233	           -0.492170	            1.020098	            1.099008	            0.012139	           -0.000831	            0.000325
            0.964000	         -158.264376	         1431.676556	          364.686766	            0.181881	            0.000000	            0.247301	           -2.498419	           22.600964	            5.757077	            0.018839	            0.017516	           -0.011994	           -0.153622	            0.000000	            0.213522	           -0.000888	            0.000068	            0.000088	           16.260477	            0.111087	           -1.830883	            0.381784	            1.022453	            1.096345	           -0.090755	           -0.000620	            0.010219	          -12.512609	            0.814730	           -0.369570	           -0.492186	            1.020101	            1.099006	            0.011543	           -0.000752	            0.000341
            0.964500	         -157.868896	         1425.184694	          363.322699	            0.181886	            0.000000	            0.247251	           -2.496825	           22.540460	            5.746245	            0.017855	            0.017144	           -0.010902	           -0.153622	            0.000000	            0.213522	           -0.000982	           -0.000028	            0.000055	           16.220040	            0.114468	           -1.846553	            0.381790	            1.022465	            1.096341	           -0.090558	           -0.000639	            0.010309	          -12.477986	            0.770292	           -0.402132	           -0.492202	            1.020105	            1.099004	            0.010922	           -0.000674	            0.000352
            0.965000	         -157.517840	         1418.751073	          361.970471	            0.181895	            0.000000	            0.247205	           -2.495427	           22.476116	            5.734403	            0.016646	            0.016375	           -0.009760	           -0.153622	            0.000000	            0.213522	           -0.001064	           -0.000121	            0.000019	           16.181428	            0.119754	           -1.862292	            0.381796	            1.022476	            1.096336	           -0.090352	           -0.000669	            0.010399	          -12.442860	            0.725232	           -0.433736	           -0.492218	            1.020109	            1.099002	            0.010277	           -0.000599	            0.000358
            0.965500	         -157.212257	         1412.384279	          360.631262	            0.181907	            0.000000	            0.247162	           -2.494230	           22.407989	            5.721546	            0.015230	            0.015216	           -0.008590	           -0.153622	            0.000000	            0.213522	           -0.001137	           -0.000211	           -0.000019	           16.144705	            0.126971	           -1.878073	            0.381799	            1.022487	            1.096333	           -0.090142	           -0.000709	            0.010486	          -12.407487	            0.679677	           -0.463912	           -0.492233	            1.020111	            1.099000	            0.009610	           -0.000526	            0.000359
            0.966000	         -156.952963	         1406.092872	          359.306111	            0.181921	            0.000000	            0.247123	           -2.493238	           22.336148	            5.707670	            0.013629	            0.013679	           -0.007408	           -0.153622	            0.000000	            0.213522	           -0.001201	           -0.000297	           -0.000059	           16.109944	            0.136134	           -1.893766	            0.381803	            1.022498	            1.096329	           -0.089929	           -0.000760	            0.010571	          -12.372098	            0.633774	           -0.492783	           -0.492247	            1.020113	            1.098998	            0.008921	           -0.000457	            0.000355
